<svg width="16" height="18" viewBox="0 0 16 18" fill="none" xmlns="http://www.w3.org/2000/svg">
<path d="M7.72217 0.222168C9.71129 0.222168 11.6189 1.01234 13.0255 2.41887C14.432 3.82539 15.2222 5.73304 15.2222 7.72217C15.2222 10.2838 13.8255 12.3805 12.3538 13.8847C11.6186 14.6281 10.8163 15.302 9.95717 15.898L9.60217 16.1397L9.4355 16.2505L9.12133 16.4505L8.84133 16.6213L8.49467 16.823C8.25936 16.9573 7.99311 17.028 7.72217 17.028C7.45123 17.028 7.18497 16.9573 6.94967 16.823L6.603 16.6213L6.16967 16.3547L6.00967 16.2505L5.668 16.023C4.74119 15.3959 3.87792 14.6798 3.0905 13.8847C1.61883 12.3797 0.222168 10.2838 0.222168 7.72217C0.222168 5.73304 1.01234 3.82539 2.41887 2.41887C3.82539 1.01234 5.73304 0.222168 7.72217 0.222168ZM7.72217 5.22217C7.39386 5.22217 7.06877 5.28683 6.76546 5.41247C6.46215 5.53811 6.18655 5.72225 5.9544 5.9544C5.72225 6.18655 5.53811 6.46215 5.41247 6.76546C5.28683 7.06877 5.22217 7.39386 5.22217 7.72217C5.22217 8.05047 5.28683 8.37556 5.41247 8.67888C5.53811 8.98219 5.72225 9.25779 5.9544 9.48994C6.18655 9.72208 6.46215 9.90623 6.76546 10.0319C7.06877 10.1575 7.39386 10.2222 7.72217 10.2222C8.38521 10.2222 9.02109 9.95878 9.48993 9.48994C9.95878 9.02109 10.2222 8.38521 10.2222 7.72217C10.2222 7.05913 9.95878 6.42324 9.48993 5.9544C9.02109 5.48556 8.38521 5.22217 7.72217 5.22217Z" fill="#073051" fill-opacity="0.8"/>
</svg>
