<svg width="12" height="13" viewBox="0 0 12 13" fill="none" xmlns="http://www.w3.org/2000/svg">
<path d="M6.34442 12.5669L6.33761 12.5681L6.29367 12.5885L6.28129 12.5908L6.27262 12.5885L6.22867 12.5681C6.22207 12.5661 6.21712 12.5671 6.21382 12.571L6.21134 12.5768L6.20082 12.8265L6.20392 12.8382L6.21011 12.8458L6.27448 12.8889L6.28376 12.8913L6.29119 12.8889L6.35556 12.8458L6.36299 12.8364L6.36547 12.8265L6.35494 12.5774C6.35329 12.5712 6.34979 12.5677 6.34442 12.5669ZM6.50845 12.501L6.5004 12.5022L6.38589 12.5564L6.3797 12.5623L6.37785 12.5687L6.38899 12.8195L6.39208 12.8265L6.39703 12.8306L6.52145 12.8848C6.52929 12.8868 6.53527 12.8852 6.5394 12.8802L6.54187 12.872L6.52083 12.5138C6.51877 12.5068 6.51464 12.5026 6.50845 12.501ZM6.06588 12.5022C6.06316 12.5006 6.0599 12.5001 6.05678 12.5008C6.05367 12.5014 6.05094 12.5032 6.04917 12.5057L6.04546 12.5138L6.02441 12.872C6.02483 12.879 6.02833 12.8837 6.03494 12.886L6.04422 12.8848L6.16863 12.8306L6.17482 12.8259L6.1773 12.8195L6.18782 12.5687L6.18597 12.5617L6.17978 12.5558L6.06588 12.5022Z" fill="#073051" fill-opacity="0.8"/>
<path d="M5.97748 0.166504C7.45493 0.166504 8.87187 0.719627 9.91659 1.70419C10.9613 2.68876 11.5482 4.02412 11.5482 5.4165C11.5482 7.20967 10.5108 8.67734 9.41772 9.73025C8.87158 10.2506 8.27567 10.7224 7.63756 11.1396L7.37388 11.3088L7.25008 11.3863L7.01673 11.5263L6.80876 11.6459L6.55126 11.7871C6.37649 11.8811 6.17872 11.9306 5.97748 11.9306C5.77623 11.9306 5.57847 11.8811 5.40369 11.7871L5.1462 11.6459L4.82434 11.4593L4.70549 11.3863L4.45171 11.2271C3.76331 10.7881 3.1221 10.2868 2.53724 9.73025C1.44413 8.67675 0.406738 7.20967 0.406738 5.4165C0.406738 4.02412 0.993654 2.68876 2.03837 1.70419C3.08309 0.719627 4.50003 0.166504 5.97748 0.166504ZM5.97748 3.6665C5.73362 3.6665 5.49216 3.71177 5.26687 3.79971C5.04158 3.88766 4.83687 4.01656 4.66444 4.17907C4.49201 4.34157 4.35523 4.53449 4.26191 4.74681C4.1686 4.95913 4.12056 5.18669 4.12056 5.4165C4.12056 5.64632 4.1686 5.87388 4.26191 6.0862C4.35523 6.29852 4.49201 6.49144 4.66444 6.65394C4.83687 6.81644 5.04158 6.94535 5.26687 7.03329C5.49216 7.12124 5.73362 7.1665 5.97748 7.1665C6.46996 7.1665 6.94228 6.98213 7.29051 6.65394C7.63875 6.32575 7.83439 5.88063 7.83439 5.4165C7.83439 4.95237 7.63875 4.50726 7.29051 4.17907C6.94228 3.85088 6.46996 3.6665 5.97748 3.6665Z" fill="#073051" fill-opacity="0.8"/>
</svg>
