<svg width="28" height="26" viewBox="0 0 28 26" fill="none" xmlns="http://www.w3.org/2000/svg">
<path d="M15.6658 11.3884H2.60266C2.22202 11.3884 1.9087 11.0514 1.9087 10.6681C1.9087 10.6042 1.92013 10.5319 1.93277 10.4739L2.62795 5.47313C2.68711 5.14826 2.97105 5.08438 3.31089 5.08438H14.9596C15.297 5.08438 15.5834 5.1428 15.6417 5.46641L16.3369 10.5584C16.3475 10.6176 16.3614 10.6525 16.3614 10.7164C16.361 11.0997 16.046 11.3884 15.6658 11.3884ZM15.1432 16.9969C14.4076 16.9969 13.8112 16.4005 13.8112 15.6571C13.8112 14.9187 14.4076 14.3232 15.1432 14.3232C15.8739 14.3232 16.4715 14.9187 16.4715 15.6571C16.4715 16.4005 15.8739 16.9969 15.1432 16.9969ZM3.10772 16.9969C2.37746 16.9969 1.7806 16.4005 1.7806 15.6571C1.7806 14.9187 2.37746 14.3232 3.10772 14.3232C3.84533 14.3232 4.44096 14.9187 4.44096 15.6571C4.44096 16.4005 3.84533 16.9969 3.10772 16.9969ZM5.40051 2.1425H13.5599V3.40331H5.40051C4.58457 3.40331 4.58457 2.1425 5.40051 2.1425ZM16.906 4.07153C16.6678 2.88932 15.9718 2.41315 14.8364 1.93741C13.7031 1.46335 11.0766 0.895142 9.10119 0.895142C7.11724 0.895142 4.47727 1.46377 3.34271 1.93741C2.20774 2.41357 1.52317 2.88932 1.28696 4.07153L0.504883 10.6525V19.7938H1.72879V20.6343C1.72879 22.3154 3.76863 22.3154 3.76863 20.6343V19.7938H13.9678V20.6343C13.9678 22.3154 16.4157 22.3154 16.4157 20.6343V19.7938H17.6396V10.6525L16.906 4.07153Z" fill="currentColor"/>
<path d="M20.4316 9.16638C22.0113 9.16644 23.5418 9.88235 24.6816 11.183C25.8233 12.4858 26.4746 14.2651 26.4746 16.1322C26.4746 18.5163 25.335 20.4907 24.0938 21.9388C23.4733 22.6546 22.7972 23.3027 22.0742 23.8754L21.7695 24.1127L21.6318 24.2172L21.3662 24.4105L21.1309 24.5736L20.832 24.7728C20.705 24.8554 20.5672 24.8949 20.4316 24.8949C20.2972 24.8949 20.1604 24.856 20.0342 24.7748L19.7314 24.5736L19.3643 24.3158L19.2393 24.223H19.2402L18.9414 23.9965C18.2589 23.4692 17.6166 22.876 17.0215 22.223L16.7686 21.9388C15.5273 20.4898 14.3887 18.5161 14.3887 16.1322C14.3887 14.2652 15.0391 12.4857 16.1807 11.183C17.3206 9.8823 18.8519 9.16638 20.4316 9.16638ZM20.4316 13.1439C20.0697 13.1439 19.7127 13.2253 19.3828 13.3812C19.0534 13.537 18.7589 13.7635 18.5137 14.0433C18.2684 14.3232 18.0761 14.6516 17.9463 15.0092C17.8165 15.3667 17.751 15.7483 17.751 16.1322C17.751 16.5161 17.8165 16.8977 17.9463 17.2552C18.0761 17.6128 18.2684 17.9412 18.5137 18.2211C18.759 18.5009 19.0534 18.7274 19.3828 18.8832C19.7127 19.0391 20.0697 19.1205 20.4316 19.1205C21.1655 19.1204 21.8535 18.7871 22.3496 18.2211C22.8438 17.6571 23.1123 16.905 23.1123 16.1322C23.1123 15.3594 22.8437 14.6073 22.3496 14.0433C21.8535 13.4773 21.1655 13.144 20.4316 13.1439Z" fill="currentColor" stroke="white"/>
</svg>
