<svg width="21" height="20" viewBox="0 0 21 20" fill="none" xmlns="http://www.w3.org/2000/svg">
<path d="M17.85 10.5882V3.52941H18.9V0H2.1V3.52941H3.15V10.5882H0C0 11.6824 0.525 12.6 1.575 12.8588V18.8235C1.575 19.1356 1.68562 19.4348 1.88254 19.6554C2.07945 19.8761 2.34652 20 2.625 20H3.675C3.95348 20 4.22055 19.8761 4.41746 19.6554C4.61437 19.4348 4.725 19.1356 4.725 18.8235V17.6471H16.275V18.8235C16.275 19.1356 16.3856 19.4348 16.5825 19.6554C16.7794 19.8761 17.0465 20 17.325 20H18.375C18.6535 20 18.9205 19.8761 19.1175 19.6554C19.3144 19.4348 19.425 19.1356 19.425 18.8235V12.8588C20.475 12.5882 21 11.6824 21 10.5882H17.85ZM6.3 12.9412C5.88228 12.9412 5.48168 12.7553 5.18631 12.4243C4.89094 12.0934 4.725 11.6445 4.725 11.1765C4.725 10.7084 4.89094 10.2596 5.18631 9.92864C5.48168 9.59769 5.88228 9.41177 6.3 9.41177C6.71772 9.41177 7.11832 9.59769 7.41369 9.92864C7.70906 10.2596 7.875 10.7084 7.875 11.1765C7.875 11.6445 7.70906 12.0934 7.41369 12.4243C7.11832 12.7553 6.71772 12.9412 6.3 12.9412ZM14.7 12.9412C14.2823 12.9412 13.8817 12.7553 13.5863 12.4243C13.2909 12.0934 13.125 11.6445 13.125 11.1765C13.125 10.7084 13.2909 10.2596 13.5863 9.92864C13.8817 9.59769 14.2823 9.41177 14.7 9.41177C15.1177 9.41177 15.5183 9.59769 15.8137 9.92864C16.1091 10.2596 16.275 10.7084 16.275 11.1765C16.275 11.6445 16.1091 12.0934 15.8137 12.4243C15.5183 12.7553 15.1177 12.9412 14.7 12.9412ZM16.275 7.64706C14.616 7.27059 12.6315 7.05882 10.5 7.05882C8.3685 7.05882 6.3 7.27059 4.725 7.64706V3.52941H16.275V7.64706Z" fill="#073051" fill-opacity="0.8"/>
</svg>
